<svg width="40" height="40" viewBox="0 0 40 40" fill="none" xmlns="http://www.w3.org/2000/svg">
<g clip-path="url(#clip0_4002_7490)">
<path fill-rule="evenodd" clip-rule="evenodd" d="M18.1694 1.18522C18.9315 1.19042 19.1759 1.20343 19.4828 1.24504C19.6909 1.27365 19.9822 1.32306 20.133 1.35167C20.2838 1.38288 20.5517 1.4505 20.7312 1.50251C20.9106 1.55453 21.1785 1.64555 21.3293 1.70537C21.4802 1.76519 21.6986 1.86402 21.8183 1.92383C21.9353 1.98105 22.1096 2.07988 22.2058 2.13709C22.3046 2.19691 22.4945 2.32955 22.6297 2.43098C22.765 2.53241 22.999 2.73787 23.1499 2.88871C23.3007 3.03955 23.5088 3.27362 23.6102 3.40886C23.7116 3.5441 23.8677 3.77816 23.9587 3.92901C24.0471 4.07985 24.1668 4.29831 24.2214 4.41795C24.276 4.53498 24.315 4.64161 24.3072 4.65722C24.2994 4.67282 24.2448 4.66762 24.1564 4.64161C24.0835 4.6182 23.8521 4.56099 23.644 4.51417C23.4359 4.46476 23.09 4.39714 22.8768 4.36073C22.6609 4.32432 22.328 4.27751 22.1356 4.2567C21.9431 4.23329 21.6154 4.20469 21.4074 4.18908C21.1915 4.17348 19.7377 4.16307 18.0134 4.16307C16.2579 4.16307 14.8379 4.17348 14.6194 4.18908C14.4114 4.20469 14.0499 4.2411 13.8132 4.2697C13.5765 4.29831 13.2254 4.35293 13.033 4.38934C12.8405 4.42315 12.4712 4.50637 12.2137 4.56879C11.9563 4.63381 11.7404 4.67802 11.7326 4.67022C11.7248 4.66242 11.7586 4.57139 11.8054 4.46736C11.8522 4.36333 11.9615 4.15267 12.0525 3.99663C12.1409 3.84318 12.3022 3.59611 12.4114 3.45047C12.5206 3.30743 12.6923 3.09937 12.7911 2.99274C12.8925 2.88611 13.072 2.71446 13.1916 2.61303C13.3113 2.509 13.5271 2.34776 13.6702 2.24893C13.8132 2.1527 14.1071 1.98885 14.3203 1.88482C14.5362 1.78079 14.8691 1.64295 15.0616 1.58054C15.254 1.51552 15.5531 1.43229 15.7247 1.39328C15.8964 1.35427 16.1903 1.30226 16.3749 1.27365C16.5596 1.24764 16.8301 1.21383 16.9731 1.20083C17.1161 1.18782 17.6545 1.18002 18.1694 1.18522ZM17.8834 6.87825C20.6037 6.88345 21.0225 6.88865 21.3554 6.92766C21.5634 6.95367 21.9093 7.00049 22.1226 7.0369C22.3384 7.07331 22.6999 7.14873 22.9288 7.20594C23.1577 7.26316 23.5322 7.37499 23.761 7.45041C23.9899 7.52844 24.3072 7.64547 24.4632 7.71309C24.6193 7.78071 24.9418 7.93415 25.1784 8.05379C25.4151 8.17342 25.761 8.36848 25.9457 8.48551C26.1303 8.60514 26.419 8.8028 26.5828 8.92504C26.7467 9.04727 27.0042 9.25273 27.155 9.38277C27.3059 9.5128 27.6049 9.79888 27.8182 10.0173C28.0341 10.2384 28.3201 10.5583 28.458 10.73C28.5932 10.9016 28.7883 11.1591 28.8897 11.3021C28.9911 11.4452 29.1706 11.7208 29.2876 11.9133C29.4047 12.1057 29.5919 12.4464 29.7037 12.6675C29.8156 12.8886 29.9716 13.2241 30.0496 13.4087C30.1277 13.5934 30.2447 13.9003 30.3097 14.0849C30.3721 14.2696 30.4736 14.5921 30.5334 14.8001C30.5906 15.0082 30.6738 15.3359 30.7154 15.5283C30.757 15.7208 30.8221 16.0719 30.8585 16.3085C30.8949 16.5452 30.9391 16.8781 30.9573 17.0498C30.9833 17.2916 30.9911 18.2331 30.9911 25.1641L30.9105 25.3331C30.8663 25.4268 30.7726 25.5646 30.7024 25.6426C30.6114 25.7414 30.5152 25.8117 30.1381 25.9963L18.094 26.0041C8.9498 26.0093 6.01617 26.0041 5.90693 25.9807C5.82891 25.9651 5.69888 25.9183 5.62085 25.8793C5.54283 25.8403 5.41539 25.7492 5.33737 25.6816C5.24114 25.5932 5.17092 25.4944 5.00968 25.1667L5.00188 21.4476C4.99667 18.8989 5.00188 17.5907 5.02268 17.2968C5.03829 17.0602 5.0747 16.6857 5.1007 16.4646C5.12931 16.2435 5.18133 15.8924 5.21774 15.6844C5.25415 15.4763 5.33477 15.0966 5.39979 14.8391C5.46221 14.5817 5.56884 14.2019 5.63386 13.9939C5.70148 13.7858 5.83151 13.4243 5.92514 13.1877C6.01877 12.951 6.19562 12.5531 6.32045 12.3034C6.44789 12.0537 6.62214 11.726 6.71317 11.5752C6.80419 11.4243 6.95764 11.1851 7.05386 11.042C7.15269 10.899 7.33994 10.6415 7.47258 10.4699C7.60522 10.3008 7.8965 9.97313 8.11757 9.74687C8.33863 9.518 8.65592 9.21892 8.81977 9.08108C8.98361 8.94324 9.23589 8.74558 9.37893 8.64415C9.52197 8.54273 9.77944 8.37368 9.95109 8.26965C10.1227 8.16562 10.4218 8.00177 10.6143 7.90554C10.8067 7.80932 11.111 7.67148 11.2905 7.60126C11.4699 7.53104 11.7612 7.42441 11.9407 7.36719C12.1201 7.30997 12.3828 7.23195 12.5258 7.19554C12.6689 7.16173 12.9393 7.10191 13.124 7.0655C13.3113 7.03169 13.6155 6.98228 13.8002 6.95887C13.9874 6.93547 14.2839 6.90686 14.4634 6.89646C14.6428 6.88345 16.1799 6.87565 17.8834 6.87825ZM17.1552 10.2358C17.0407 10.2592 16.8301 10.3164 16.687 10.3632C16.544 10.4127 16.3099 10.5089 16.1669 10.5817C16.0238 10.6519 15.795 10.7846 15.6597 10.8756C15.5011 10.9822 15.2956 11.1565 15.085 11.3671C14.8509 11.6012 14.7052 11.7728 14.57 11.9783C14.466 12.137 14.3333 12.3632 14.2735 12.4855C14.2163 12.6077 14.1305 12.8235 14.0811 12.9666C14.0343 13.1096 13.9692 13.3541 13.9354 13.5127C13.8886 13.752 13.8782 13.8821 13.8808 14.293C13.8808 14.7039 13.8912 14.8339 13.9406 15.0602C13.9744 15.211 14.0291 15.4269 14.0655 15.5413C14.0993 15.6558 14.1981 15.8898 14.2813 16.0615C14.3646 16.2331 14.4894 16.4542 14.5544 16.5556C14.622 16.657 14.7573 16.8313 14.8509 16.9457C14.9471 17.0602 15.111 17.2292 15.215 17.3228C15.319 17.4165 15.4985 17.5595 15.6155 17.6427C15.7325 17.7285 15.9224 17.8456 16.0368 17.908C16.1513 17.973 16.3749 18.0718 16.531 18.1317C16.6896 18.1915 16.9393 18.2669 17.0901 18.3007C17.241 18.3345 17.5036 18.3709 17.6753 18.3839C17.8469 18.3969 18.1174 18.3995 18.2735 18.3891C18.4295 18.3787 18.6584 18.3501 18.7806 18.3241C18.9028 18.3007 19.1135 18.2435 19.2487 18.2019C19.384 18.1577 19.5998 18.0744 19.7299 18.012C19.8599 17.9522 20.0472 17.8534 20.146 17.791C20.2474 17.7312 20.4217 17.6063 20.5361 17.5179C20.6505 17.4295 20.8508 17.2474 20.9782 17.1122C21.1083 16.9769 21.3033 16.7325 21.4126 16.5686C21.5218 16.4048 21.6596 16.1707 21.7169 16.0485C21.7741 15.9262 21.8547 15.7234 21.8989 15.5933C21.9431 15.4633 22.0029 15.2422 22.0367 15.0992C22.0862 14.8755 22.094 14.7611 22.0966 14.293C22.0966 13.8638 22.0862 13.6974 22.0497 13.5127C22.0237 13.3853 21.9665 13.1668 21.9223 13.0316C21.8781 12.8964 21.7871 12.6623 21.7143 12.5115C21.644 12.3606 21.5114 12.1266 21.4204 11.9913C21.3293 11.8561 21.1759 11.6532 21.0771 11.544C20.9808 11.4348 20.8118 11.2683 20.7052 11.1721C20.5985 11.0785 20.4061 10.9302 20.276 10.8444C20.146 10.756 19.9249 10.6311 19.7819 10.5609C19.6389 10.4933 19.3918 10.3945 19.2357 10.345C19.0797 10.2956 18.8378 10.2358 18.7026 10.2124C18.5674 10.189 18.2917 10.163 18.0914 10.1578C17.8912 10.1526 17.6467 10.1578 17.5453 10.1708C17.4464 10.1838 17.2696 10.2124 17.1552 10.2358ZM17.9874 28.6647C28.5386 28.6621 29.9196 28.6673 30.0808 28.7037C30.1823 28.7245 30.3305 28.7791 30.4163 28.8259C30.4996 28.8727 30.6244 28.9716 30.6946 29.0444C30.7648 29.1198 30.8611 29.2602 30.9911 29.5333L30.9963 33.2784C31.0041 36.9819 31.0041 37.0261 30.9495 37.2445C30.9209 37.3668 30.8585 37.5488 30.8117 37.6476C30.7648 37.7465 30.6764 37.9051 30.614 37.9987C30.549 38.0924 30.4345 38.2328 30.3539 38.3108C30.2759 38.3889 30.1355 38.5085 30.0418 38.5761C29.9482 38.6437 29.7844 38.7374 29.6777 38.7894C29.5711 38.8388 29.389 38.9064 29.0666 39H6.93423L6.73397 38.9402C6.62214 38.909 6.45309 38.8466 6.35686 38.8024C6.25804 38.7582 6.09939 38.6697 5.99796 38.6021C5.89913 38.5345 5.74569 38.4097 5.65986 38.3238C5.57404 38.238 5.4492 38.0924 5.38679 37.9987C5.32437 37.9051 5.23594 37.7465 5.18913 37.6476C5.14232 37.5488 5.0799 37.3668 5.05129 37.2445C4.99667 37.0261 4.99667 36.9819 5.00968 29.5333L5.0955 29.3565C5.13972 29.2602 5.23594 29.1198 5.30616 29.0444C5.37638 28.9716 5.50642 28.8701 5.59745 28.8207C5.68847 28.7713 5.83411 28.7167 5.91994 28.6985C6.04477 28.6725 8.45306 28.6647 17.9874 28.6647Z" fill="#E33E3F"/>
<path d="M22 31C22 35.9706 26.0294 40 31 40C35.9706 40 40 35.9706 40 31C40 26.0294 35.9706 22 31 22C26.0294 22 22 26.0294 22 31Z" fill="#07060E"/>
<path d="M26.9321 33.8329C27.0061 33.759 27.1078 33.7158 27.2157 33.7158H36.9983C37.1771 33.7158 37.2665 33.9316 37.1401 34.0579L35.2076 35.9904C35.1336 36.0644 35.0319 36.1075 34.9241 36.1075H25.1414C24.9626 36.1075 24.8732 35.8918 24.9996 35.7654L26.9321 33.8329Z" fill="url(#paint0_linear_4002_7490)"/>
<path d="M26.9321 26.6171C27.0092 26.5431 27.1109 26.5 27.2157 26.5H36.9983C37.1771 26.5 37.2665 26.7157 37.1401 26.8421L35.2076 28.7746C35.1336 28.8486 35.0319 28.8917 34.9241 28.8917H25.1414C24.9626 28.8917 24.8732 28.676 24.9996 28.5496L26.9321 26.6171Z" fill="url(#paint1_linear_4002_7490)"/>
<path d="M35.2076 30.204C35.1336 30.13 35.0319 30.0869 34.9241 30.0869H25.1414C24.9626 30.0869 24.8732 30.3026 24.9996 30.429L26.9321 32.3615C27.0061 32.4355 27.1078 32.4786 27.2157 32.4786H36.9983C37.1771 32.4786 37.2665 32.2629 37.1401 32.1365L35.2076 30.204Z" fill="url(#paint2_linear_4002_7490)"/>
</g>
<defs>
<linearGradient id="paint0_linear_4002_7490" x1="36.0638" y1="-7.12079" x2="10.3099" y2="5.15933" gradientUnits="userSpaceOnUse">
<stop stop-color="#00FFA3"/>
<stop offset="1" stop-color="#DC1FFF"/>
</linearGradient>
<linearGradient id="paint1_linear_4002_7490" x1="33.1034" y1="15.6542" x2="7.34958" y2="27.9343" gradientUnits="userSpaceOnUse">
<stop stop-color="#00FFA3"/>
<stop offset="1" stop-color="#DC1FFF"/>
</linearGradient>
<linearGradient id="paint2_linear_4002_7490" x1="34.6328" y1="24.571" x2="27.8624" y2="37.539" gradientUnits="userSpaceOnUse">
<stop stop-color="#00FFA3"/>
<stop offset="1" stop-color="#DC1FFF"/>
</linearGradient>
<clipPath id="clip0_4002_7490">
<rect width="40" height="40" fill="white"/>
</clipPath>
</defs>
</svg>
