<svg width="40" height="40" viewBox="0 0 40 40" fill="none" xmlns="http://www.w3.org/2000/svg">
<path d="M37.8326 1.69879L22.3682 13.1381L25.2468 6.39334L37.8326 1.69879Z" fill="#E17726" stroke="#E17726" stroke-width="0.294275" stroke-linecap="round" stroke-linejoin="round"/>
<path d="M2.16724 1.69879L17.4894 13.2469L14.753 6.40171L2.16724 1.69879Z" fill="#E27625" stroke="#E27625" stroke-width="0.294275" stroke-linecap="round" stroke-linejoin="round"/>
<path d="M32.2678 28.2175L28.1506 34.502L36.9623 36.9288L39.4895 28.3598L32.2678 28.2175Z" fill="#E27625" stroke="#E27625" stroke-width="0.294275" stroke-linecap="round" stroke-linejoin="round"/>
<path d="M0.535645 28.3598L3.0461 36.9288L11.8411 34.502L7.74065 28.2175L0.535645 28.3598Z" fill="#E27625" stroke="#E27625" stroke-width="0.294275" stroke-linecap="round" stroke-linejoin="round"/>
<path d="M11.3639 17.6067L8.92041 21.2971L17.6401 21.6904L17.3472 12.3096L11.3639 17.6067Z" fill="#E27625" stroke="#E27625" stroke-width="0.294275" stroke-linecap="round" stroke-linejoin="round"/>
<path d="M28.6359 17.6067L22.569 12.2092L22.3682 21.6987L31.0878 21.3054L28.6359 17.6067Z" fill="#E27625" stroke="#E27625" stroke-width="0.294275" stroke-linecap="round" stroke-linejoin="round"/>
<path d="M11.8328 34.5021L17.1047 31.9581L12.5608 28.4184L11.8328 34.5021Z" fill="#E27625" stroke="#E27625" stroke-width="0.294275" stroke-linecap="round" stroke-linejoin="round"/>
<path d="M22.887 31.9581L28.1505 34.5021L27.4309 28.4184L22.887 31.9581Z" fill="#E27625" stroke="#E27625" stroke-width="0.294275" stroke-linecap="round" stroke-linejoin="round"/>
<path d="M28.1505 34.5021L22.887 31.9581L23.3137 35.3723L23.2719 36.82L28.1505 34.5021Z" fill="#D5BFB2" stroke="#D5BFB2" stroke-width="0.294275" stroke-linecap="round" stroke-linejoin="round"/>
<path d="M11.8328 34.5021L16.7281 36.82L16.6947 35.3723L17.1047 31.9581L11.8328 34.5021Z" fill="#D5BFB2" stroke="#D5BFB2" stroke-width="0.294275" stroke-linecap="round" stroke-linejoin="round"/>
<path d="M16.8202 26.159L12.4436 24.8786L15.5315 23.4561L16.8202 26.159Z" fill="#233447" stroke="#233447" stroke-width="0.294275" stroke-linecap="round" stroke-linejoin="round"/>
<path d="M23.1799 26.159L24.4686 23.4561L27.5732 24.8786L23.1799 26.159Z" fill="#233447" stroke="#233447" stroke-width="0.294275" stroke-linecap="round" stroke-linejoin="round"/>
<path d="M11.8326 34.502L12.5941 28.2175L7.73218 28.3514L11.8326 34.502Z" fill="#CC6228" stroke="#CC6228" stroke-width="0.294275" stroke-linecap="round" stroke-linejoin="round"/>
<path d="M27.3975 28.2175L28.1506 34.502L32.2677 28.3514L27.3975 28.2175Z" fill="#CC6228" stroke="#CC6228" stroke-width="0.294275" stroke-linecap="round" stroke-linejoin="round"/>
<path d="M31.0878 21.2971L22.3682 21.6904L23.1799 26.159L24.4686 23.456L27.5732 24.8786L31.0878 21.2971Z" fill="#CC6228" stroke="#CC6228" stroke-width="0.294275" stroke-linecap="round" stroke-linejoin="round"/>
<path d="M12.4435 24.8786L15.5313 23.456L16.82 26.159L17.6318 21.6904L8.91211 21.2971L12.4435 24.8786Z" fill="#CC6228" stroke="#CC6228" stroke-width="0.294275" stroke-linecap="round" stroke-linejoin="round"/>
<path d="M8.91211 21.2971L12.569 28.4184L12.4435 24.8786L8.91211 21.2971Z" fill="#E27525" stroke="#E27525" stroke-width="0.294275" stroke-linecap="round" stroke-linejoin="round"/>
<path d="M27.5731 24.8786L27.4392 28.4184L31.0961 21.2971L27.5731 24.8786Z" fill="#E27525" stroke="#E27525" stroke-width="0.294275" stroke-linecap="round" stroke-linejoin="round"/>
<path d="M17.6318 21.6904L16.8201 26.159L17.841 31.4393L18.0669 24.4853L17.6318 21.6904Z" fill="#E27525" stroke="#E27525" stroke-width="0.294275" stroke-linecap="round" stroke-linejoin="round"/>
<path d="M22.3682 21.6904L21.9414 24.4686L22.159 31.4393L23.1799 26.159L22.3682 21.6904Z" fill="#E27525" stroke="#E27525" stroke-width="0.294275" stroke-linecap="round" stroke-linejoin="round"/>
<path d="M23.1801 26.159L22.1592 31.4393L22.8956 31.9581L27.4395 28.4184L27.5734 24.8786L23.1801 26.159Z" fill="#F5841F" stroke="#F5841F" stroke-width="0.294275" stroke-linecap="round" stroke-linejoin="round"/>
<path d="M12.4436 24.8786L12.5691 28.4184L17.113 31.9581L17.8494 31.4393L16.8202 26.159L12.4436 24.8786Z" fill="#F5841F" stroke="#F5841F" stroke-width="0.294275" stroke-linecap="round" stroke-linejoin="round"/>
<path d="M23.2721 36.82L23.314 35.3723L22.9123 35.0376H17.0713L16.6864 35.3723L16.7198 36.82L11.8245 34.502L13.5399 35.9079L17.0127 38.3012H22.9625L26.452 35.9079L28.1508 34.502L23.2721 36.82Z" fill="#C0AC9D" stroke="#C0AC9D" stroke-width="0.294275" stroke-linecap="round" stroke-linejoin="round"/>
<path d="M22.887 31.9581L22.1506 31.4393H17.841L17.1046 31.9581L16.6946 35.3723L17.0795 35.0376H22.9205L23.3222 35.3723L22.887 31.9581Z" fill="#161616" stroke="#161616" stroke-width="0.294275" stroke-linecap="round" stroke-linejoin="round"/>
<path d="M38.4852 13.8829L39.7823 7.56489L37.8242 1.69043L22.887 12.7532L28.6359 17.6067L36.753 19.9749L38.5438 17.8829L37.7656 17.3222L39.0041 16.1925L38.0585 15.4645L39.297 14.5189L38.4852 13.8829Z" fill="#763E1A" stroke="#763E1A" stroke-width="0.294275" stroke-linecap="round" stroke-linejoin="round"/>
<path d="M0.209229 7.57325L1.52303 13.8912L0.677847 14.5188L1.93307 15.4645L0.987469 16.1925L2.22596 17.3222L1.44772 17.8829L3.23851 19.9749L11.3556 17.6067L17.1046 12.7532L2.16738 1.69879L0.209229 7.57325Z" fill="#763E1A" stroke="#763E1A" stroke-width="0.294275" stroke-linecap="round" stroke-linejoin="round"/>
<path d="M36.7614 19.9665L28.6443 17.5983L31.0878 21.2887L27.4309 28.41L32.2593 28.3514H39.4811L36.7614 19.9665Z" fill="#F5841F" stroke="#F5841F" stroke-width="0.294275" stroke-linecap="round" stroke-linejoin="round"/>
<path d="M11.364 17.6067L3.24687 19.9749L0.543945 28.3598H7.74895L12.5774 28.4184L8.92049 21.2971L11.364 17.6067Z" fill="#F5841F" stroke="#F5841F" stroke-width="0.294275" stroke-linecap="round" stroke-linejoin="round"/>
<path d="M22.3682 21.6904L22.887 12.7532L25.2385 6.39334H14.7532L17.1046 12.7532L17.6235 21.6904L17.8243 24.4937L17.841 31.4309H22.1506L22.1674 24.4937L22.3682 21.6904Z" fill="#F5841F" stroke="#F5841F" stroke-width="0.294275" stroke-linecap="round" stroke-linejoin="round"/>
</svg>
