<svg width="40" height="40" viewBox="0 0 40 40" fill="none" xmlns="http://www.w3.org/2000/svg">
<rect width="40" height="40" rx="12" fill="#010203"/>
<path d="M23.091 16.4334H16.9088C16.8459 16.4318 16.7834 16.4431 16.725 16.4665C16.6666 16.4898 16.6136 16.5248 16.5691 16.5692C16.5247 16.6137 16.4897 16.6667 16.4663 16.7251C16.443 16.7835 16.4317 16.846 16.4332 16.9089V23.0911C16.4317 23.1539 16.443 23.2165 16.4663 23.2749C16.4897 23.3332 16.5247 23.3863 16.5691 23.4307C16.6136 23.4752 16.6666 23.5102 16.725 23.5335C16.7834 23.5569 16.8459 23.5681 16.9088 23.5666H23.091C23.1538 23.5681 23.2163 23.5569 23.2747 23.5335C23.3331 23.5102 23.3862 23.4752 23.4306 23.4307C23.4751 23.3863 23.5101 23.3332 23.5334 23.2749C23.5568 23.2165 23.568 23.1539 23.5665 23.0911V16.9089C23.568 16.846 23.5568 16.7835 23.5334 16.7251C23.5101 16.6667 23.4751 16.6137 23.4306 16.5692C23.3862 16.5248 23.3331 16.4898 23.2747 16.4665C23.2163 16.4431 23.1538 16.4318 23.091 16.4334Z" fill="white"/>
<path d="M15.9579 9.30012H9.77573C9.71286 9.2986 9.65034 9.30985 9.59195 9.33321C9.53357 9.35657 9.48053 9.39154 9.43607 9.43601C9.3916 9.48047 9.35663 9.53351 9.33327 9.59189C9.30991 9.65028 9.29866 9.7128 9.30019 9.77567V15.9578C9.29866 16.0207 9.30991 16.0832 9.33327 16.1416C9.35663 16.2 9.3916 16.253 9.43607 16.2975C9.48053 16.342 9.53357 16.3769 9.59195 16.4003C9.65034 16.4237 9.71286 16.4349 9.77573 16.4334H15.9579C16.0208 16.4349 16.0833 16.4237 16.1417 16.4003C16.2001 16.3769 16.2531 16.342 16.2976 16.2975C16.342 16.253 16.377 16.2 16.4004 16.1416C16.4237 16.0832 16.435 16.0207 16.4334 15.9578V9.77567C16.435 9.7128 16.4237 9.65028 16.4004 9.59189C16.377 9.53351 16.342 9.48047 16.2976 9.43601C16.2531 9.39154 16.2001 9.35657 16.1417 9.33321C16.0833 9.30985 16.0208 9.2986 15.9579 9.30012Z" fill="white"/>
<path d="M30.2245 9.30012H24.0423C23.9795 9.2986 23.9169 9.30985 23.8586 9.33321C23.8002 9.35657 23.7471 9.39154 23.7027 9.43601C23.6582 9.48047 23.6232 9.53351 23.5999 9.59189C23.5765 9.65028 23.5653 9.7128 23.5668 9.77567V15.9578C23.5653 16.0207 23.5765 16.0832 23.5999 16.1416C23.6232 16.2 23.6582 16.253 23.7027 16.2975C23.7471 16.342 23.8002 16.3769 23.8586 16.4003C23.9169 16.4237 23.9795 16.4349 24.0423 16.4334H30.2245C30.2874 16.4349 30.3499 16.4237 30.4083 16.4003C30.4667 16.3769 30.5197 16.342 30.5642 16.2975C30.6086 16.253 30.6436 16.2 30.667 16.1416C30.6903 16.0832 30.7016 16.0207 30.7 15.9578V9.77567C30.7016 9.7128 30.6903 9.65028 30.667 9.59189C30.6436 9.53351 30.6086 9.48047 30.5642 9.43601C30.5197 9.39154 30.4667 9.35657 30.4083 9.33321C30.3499 9.30985 30.2874 9.2986 30.2245 9.30012Z" fill="white"/>
<path d="M15.9579 23.5666H9.77573C9.71286 23.5651 9.65034 23.5763 9.59195 23.5997C9.53357 23.623 9.48053 23.658 9.43607 23.7025C9.3916 23.747 9.35663 23.8 9.33327 23.8584C9.30991 23.9168 9.29866 23.9793 9.30019 24.0421V30.2243C9.29866 30.2872 9.30991 30.3497 9.33327 30.4081C9.35663 30.4665 9.3916 30.5195 9.43607 30.564C9.48053 30.6084 9.53357 30.6434 9.59195 30.6668C9.65034 30.6901 9.71286 30.7014 9.77573 30.6999H15.9579C16.0208 30.7014 16.0833 30.6901 16.1417 30.6668C16.2001 30.6434 16.2531 30.6084 16.2976 30.564C16.342 30.5195 16.377 30.4665 16.4004 30.4081C16.4237 30.3497 16.435 30.2872 16.4334 30.2243V24.0421C16.435 23.9793 16.4237 23.9168 16.4004 23.8584C16.377 23.8 16.342 23.747 16.2976 23.7025C16.2531 23.658 16.2001 23.623 16.1417 23.5997C16.0833 23.5763 16.0208 23.5651 15.9579 23.5666Z" fill="white"/>
<path d="M30.2245 23.5666H24.0423C23.9795 23.5651 23.9169 23.5763 23.8586 23.5997C23.8002 23.623 23.7471 23.658 23.7027 23.7025C23.6582 23.747 23.6232 23.8 23.5999 23.8584C23.5765 23.9168 23.5653 23.9793 23.5668 24.0421V30.2243C23.5653 30.2872 23.5765 30.3497 23.5999 30.4081C23.6232 30.4665 23.6582 30.5195 23.7027 30.564C23.7471 30.6084 23.8002 30.6434 23.8586 30.6668C23.9169 30.6901 23.9795 30.7014 24.0423 30.6999H30.2245C30.2874 30.7014 30.3499 30.6901 30.4083 30.6668C30.4667 30.6434 30.5197 30.6084 30.5642 30.564C30.6086 30.5195 30.6436 30.4665 30.667 30.4081C30.6903 30.3497 30.7016 30.2872 30.7 30.2243V24.0421C30.7016 23.9793 30.6903 23.9168 30.667 23.8584C30.6436 23.8 30.6086 23.747 30.5642 23.7025C30.5197 23.658 30.4667 23.623 30.4083 23.5997C30.3499 23.5763 30.2874 23.5651 30.2245 23.5666Z" fill="white"/>
<path d="M23.091 16.4334H16.9088C16.8459 16.4318 16.7834 16.4431 16.725 16.4665C16.6666 16.4898 16.6136 16.5248 16.5691 16.5692C16.5247 16.6137 16.4897 16.6667 16.4663 16.7251C16.443 16.7835 16.4317 16.846 16.4332 16.9089V23.0911C16.4317 23.1539 16.443 23.2165 16.4663 23.2749C16.4897 23.3332 16.5247 23.3863 16.5691 23.4307C16.6136 23.4752 16.6666 23.5102 16.725 23.5335C16.7834 23.5569 16.8459 23.5681 16.9088 23.5666H23.091C23.1538 23.5681 23.2163 23.5569 23.2747 23.5335C23.3331 23.5102 23.3862 23.4752 23.4306 23.4307C23.4751 23.3863 23.5101 23.3332 23.5334 23.2749C23.5568 23.2165 23.568 23.1539 23.5665 23.0911V16.9089C23.568 16.846 23.5568 16.7835 23.5334 16.7251C23.5101 16.6667 23.4751 16.6137 23.4306 16.5692C23.3862 16.5248 23.3331 16.4898 23.2747 16.4665C23.2163 16.4431 23.1538 16.4318 23.091 16.4334Z" fill="white"/>
<path d="M15.9579 9.30012H9.77573C9.71286 9.2986 9.65034 9.30985 9.59195 9.33321C9.53357 9.35657 9.48053 9.39154 9.43607 9.43601C9.3916 9.48047 9.35663 9.53351 9.33327 9.59189C9.30991 9.65028 9.29866 9.7128 9.30019 9.77567V15.9578C9.29866 16.0207 9.30991 16.0832 9.33327 16.1416C9.35663 16.2 9.3916 16.253 9.43607 16.2975C9.48053 16.342 9.53357 16.3769 9.59195 16.4003C9.65034 16.4237 9.71286 16.4349 9.77573 16.4334H15.9579C16.0208 16.4349 16.0833 16.4237 16.1417 16.4003C16.2001 16.3769 16.2531 16.342 16.2976 16.2975C16.342 16.253 16.377 16.2 16.4004 16.1416C16.4237 16.0832 16.435 16.0207 16.4334 15.9578V9.77567C16.435 9.7128 16.4237 9.65028 16.4004 9.59189C16.377 9.53351 16.342 9.48047 16.2976 9.43601C16.2531 9.39154 16.2001 9.35657 16.1417 9.33321C16.0833 9.30985 16.0208 9.2986 15.9579 9.30012Z" fill="white"/>
<path d="M30.2245 9.30012H24.0423C23.9795 9.2986 23.9169 9.30985 23.8586 9.33321C23.8002 9.35657 23.7471 9.39154 23.7027 9.43601C23.6582 9.48047 23.6232 9.53351 23.5999 9.59189C23.5765 9.65028 23.5653 9.7128 23.5668 9.77567V15.9578C23.5653 16.0207 23.5765 16.0832 23.5999 16.1416C23.6232 16.2 23.6582 16.253 23.7027 16.2975C23.7471 16.342 23.8002 16.3769 23.8586 16.4003C23.9169 16.4237 23.9795 16.4349 24.0423 16.4334H30.2245C30.2874 16.4349 30.3499 16.4237 30.4083 16.4003C30.4667 16.3769 30.5197 16.342 30.5642 16.2975C30.6086 16.253 30.6436 16.2 30.667 16.1416C30.6903 16.0832 30.7016 16.0207 30.7 15.9578V9.77567C30.7016 9.7128 30.6903 9.65028 30.667 9.59189C30.6436 9.53351 30.6086 9.48047 30.5642 9.43601C30.5197 9.39154 30.4667 9.35657 30.4083 9.33321C30.3499 9.30985 30.2874 9.2986 30.2245 9.30012Z" fill="white"/>
<path d="M15.9579 23.5666H9.77573C9.71286 23.5651 9.65034 23.5763 9.59195 23.5997C9.53357 23.623 9.48053 23.658 9.43607 23.7025C9.3916 23.747 9.35663 23.8 9.33327 23.8584C9.30991 23.9168 9.29866 23.9793 9.30019 24.0421V30.2243C9.29866 30.2872 9.30991 30.3497 9.33327 30.4081C9.35663 30.4665 9.3916 30.5195 9.43607 30.564C9.48053 30.6084 9.53357 30.6434 9.59195 30.6668C9.65034 30.6901 9.71286 30.7014 9.77573 30.6999H15.9579C16.0208 30.7014 16.0833 30.6901 16.1417 30.6668C16.2001 30.6434 16.2531 30.6084 16.2976 30.564C16.342 30.5195 16.377 30.4665 16.4004 30.4081C16.4237 30.3497 16.435 30.2872 16.4334 30.2243V24.0421C16.435 23.9793 16.4237 23.9168 16.4004 23.8584C16.377 23.8 16.342 23.747 16.2976 23.7025C16.2531 23.658 16.2001 23.623 16.1417 23.5997C16.0833 23.5763 16.0208 23.5651 15.9579 23.5666Z" fill="white"/>
<path d="M30.2245 23.5666H24.0423C23.9795 23.5651 23.9169 23.5763 23.8586 23.5997C23.8002 23.623 23.7471 23.658 23.7027 23.7025C23.6582 23.747 23.6232 23.8 23.5999 23.8584C23.5765 23.9168 23.5653 23.9793 23.5668 24.0421V30.2243C23.5653 30.2872 23.5765 30.3497 23.5999 30.4081C23.6232 30.4665 23.6582 30.5195 23.7027 30.564C23.7471 30.6084 23.8002 30.6434 23.8586 30.6668C23.9169 30.6901 23.9795 30.7014 24.0423 30.6999H30.2245C30.2874 30.7014 30.3499 30.6901 30.4083 30.6668C30.4667 30.6434 30.5197 30.6084 30.5642 30.564C30.6086 30.5195 30.6436 30.4665 30.667 30.4081C30.6903 30.3497 30.7016 30.2872 30.7 30.2243V24.0421C30.7016 23.9793 30.6903 23.9168 30.667 23.8584C30.6436 23.8 30.6086 23.747 30.5642 23.7025C30.5197 23.658 30.4667 23.623 30.4083 23.5997C30.3499 23.5763 30.2874 23.5651 30.2245 23.5666Z" fill="white"/>
</svg>
