<svg width="40" height="40" viewBox="0 0 40 40" fill="none" xmlns="http://www.w3.org/2000/svg">
<rect width="40" height="40" rx="12" fill="#AB9FF2"/>
<path d="M10.723 29.1632C13.6596 29.1632 15.8664 26.6093 17.1834 24.5912C17.0232 25.0377 16.9343 25.4841 16.9343 25.9128C16.9343 27.0915 17.6105 27.931 18.9454 27.931C20.7785 27.931 22.7362 26.3236 23.7506 24.5912C23.6795 24.8412 23.6439 25.0734 23.6439 25.2877C23.6439 26.1093 24.1066 26.6272 25.0498 26.6272C28.022 26.6272 31.012 21.3587 31.012 16.7509C31.012 13.1611 29.1966 10 24.6405 10C16.6317 10 8 19.787 8 26.1093C8 28.5918 9.3348 29.1632 10.723 29.1632ZM21.8819 16.358C21.8819 15.465 22.3802 14.8399 23.11 14.8399C23.8218 14.8399 24.3201 15.465 24.3201 16.358C24.3201 17.251 23.8218 17.8939 23.11 17.8939C22.3802 17.8939 21.8819 17.251 21.8819 16.358ZM25.6906 16.358C25.6906 15.465 26.1889 14.8399 26.9186 14.8399C27.6304 14.8399 28.1288 15.465 28.1288 16.358C28.1288 17.251 27.6304 17.8939 26.9186 17.8939C26.1889 17.8939 25.6906 17.251 25.6906 16.358Z" fill="white"/>
</svg>
