<svg width="40" height="40" viewBox="0 0 40 40" fill="none" xmlns="http://www.w3.org/2000/svg">
<path d="M20 38C29.9411 38 38 29.9411 38 20C38 10.0589 29.9411 2 20 2C10.0589 2 2 10.0589 2 20C2 29.9411 10.0589 38 20 38Z" fill="#AB9FF2"/>
<path d="M11.6032 29C14.4107 29 16.5205 26.4678 17.7796 24.4669C17.6265 24.9096 17.5414 25.3523 17.5414 25.7772C17.5414 26.946 18.188 27.7782 19.464 27.7782C21.2166 27.7782 23.0882 26.1845 24.058 24.4669C23.9899 24.7148 23.9559 24.945 23.9559 25.1575C23.9559 25.972 24.3983 26.4856 25.3001 26.4856C28.1416 26.4856 31 21.2619 31 16.6934C31 13.1342 29.2645 10 24.9088 10C17.2521 10 9 19.7036 9 25.972C9 28.4334 10.2761 29 11.6032 29ZM22.2715 16.3038C22.2715 15.4185 22.7479 14.7987 23.4455 14.7987C24.1261 14.7987 24.6025 15.4185 24.6025 16.3038C24.6025 17.1892 24.1261 17.8267 23.4455 17.8267C22.7479 17.8267 22.2715 17.1892 22.2715 16.3038ZM25.9126 16.3038C25.9126 15.4185 26.389 14.7987 27.0866 14.7987C27.7672 14.7987 28.2436 15.4185 28.2436 16.3038C28.2436 17.1892 27.7672 17.8267 27.0866 17.8267C26.389 17.8267 25.9126 17.1892 25.9126 16.3038Z" fill="#FFFDF8"/>
<path d="M22 31C22 35.9706 26.0294 40 31 40C35.9706 40 40 35.9706 40 31C40 26.0294 35.9706 22 31 22C26.0294 22 22 26.0294 22 31Z" fill="#07060E"/>
<path d="M26.9321 33.8329C27.0061 33.759 27.1078 33.7158 27.2157 33.7158H36.9983C37.1771 33.7158 37.2665 33.9316 37.1401 34.0579L35.2076 35.9904C35.1336 36.0644 35.0319 36.1075 34.9241 36.1075H25.1414C24.9626 36.1075 24.8732 35.8918 24.9996 35.7654L26.9321 33.8329Z" fill="url(#paint0_linear_700_40)"/>
<path d="M26.9321 26.6171C27.0092 26.5431 27.1109 26.5 27.2157 26.5H36.9983C37.1771 26.5 37.2665 26.7157 37.1401 26.8421L35.2076 28.7746C35.1336 28.8486 35.0319 28.8917 34.9241 28.8917H25.1414C24.9626 28.8917 24.8732 28.676 24.9996 28.5496L26.9321 26.6171Z" fill="url(#paint1_linear_700_40)"/>
<path d="M35.2076 30.2038C35.1336 30.1298 35.0319 30.0867 34.9241 30.0867H25.1414C24.9626 30.0867 24.8732 30.3024 24.9996 30.4288L26.9321 32.3613C27.0061 32.4353 27.1078 32.4784 27.2157 32.4784H36.9983C37.1771 32.4784 37.2665 32.2627 37.1401 32.1363L35.2076 30.2038Z" fill="url(#paint2_linear_700_40)"/>
<defs>
<linearGradient id="paint0_linear_700_40" x1="36.0638" y1="-7.12086" x2="10.3099" y2="5.15925" gradientUnits="userSpaceOnUse">
<stop stop-color="#00FFA3"/>
<stop offset="1" stop-color="#DC1FFF"/>
</linearGradient>
<linearGradient id="paint1_linear_700_40" x1="33.1034" y1="15.6542" x2="7.34955" y2="27.9343" gradientUnits="userSpaceOnUse">
<stop stop-color="#00FFA3"/>
<stop offset="1" stop-color="#DC1FFF"/>
</linearGradient>
<linearGradient id="paint2_linear_700_40" x1="34.6328" y1="24.5708" x2="27.8624" y2="37.5388" gradientUnits="userSpaceOnUse">
<stop stop-color="#00FFA3"/>
<stop offset="1" stop-color="#DC1FFF"/>
</linearGradient>
</defs>
</svg>
