<svg width="40" height="40" viewBox="0 0 40 40" fill="none" xmlns="http://www.w3.org/2000/svg">
<rect width="40" height="40" rx="12" fill="url(#paint0_linear_13_511)"/>
<path d="M34.8437 21.9833C36.0518 19.2734 30.0443 11.6661 24.298 8.53184C20.674 6.08309 16.9192 6.40956 16.1357 7.48699C14.4706 9.83781 21.6861 11.862 26.5181 14.1801C25.4734 14.6372 24.4939 15.4534 23.9389 16.4656C22.1431 14.5066 18.1926 12.8088 13.5564 14.1801C10.422 15.0943 7.84278 17.2818 6.83069 20.5467C6.60215 20.4488 6.30826 20.3835 6.04705 20.3835C4.96962 20.3835 4.08813 21.265 4.08813 22.3424C4.08813 23.4199 4.96962 24.3014 6.04705 24.3014C6.243 24.3014 6.86327 24.1708 6.86327 24.1708L16.9192 24.2361C12.9034 30.6354 9.70376 31.5495 9.70376 32.6596C9.70376 33.7697 12.7402 33.4758 13.8829 33.0514C19.368 31.0924 25.2448 24.9217 26.257 23.1587C30.5014 23.7137 34.0602 23.7464 34.8437 21.9833Z" fill="url(#paint1_linear_13_511)"/>
<path fill-rule="evenodd" clip-rule="evenodd" d="M26.5504 14.1801C26.779 14.0822 26.7463 13.7556 26.681 13.4945C26.5504 12.9068 24.1018 10.4907 21.8163 9.4133C18.6819 7.94414 16.3965 8.0094 16.0701 8.69501C16.6903 10.001 19.6614 11.209 22.7305 12.515C24.0038 13.0374 25.3424 13.5924 26.5504 14.1801Z" fill="url(#paint2_linear_13_511)"/>
<path fill-rule="evenodd" clip-rule="evenodd" d="M22.5673 27.3051C21.947 27.0766 21.2287 26.848 20.4125 26.6522C21.2614 25.1177 21.4572 22.7995 20.641 21.3629C19.4982 19.3387 18.0617 18.2612 14.6988 18.2612C12.8704 18.2612 7.90775 18.8816 7.80981 23.028C7.80981 23.4525 7.80981 23.8443 7.84249 24.2361H16.919C15.7109 26.1624 14.5682 27.599 13.5561 28.6764C14.7641 28.9702 15.7436 29.2314 16.6577 29.4926C17.5066 29.7212 18.3229 29.9171 19.1391 30.1456C20.3798 29.2314 21.5552 28.2519 22.5673 27.3051Z" fill="url(#paint3_linear_13_511)"/>
<path d="M6.69972 23.7463C7.05886 26.8807 8.8545 28.1213 12.5113 28.4805C16.168 28.8396 18.2575 28.6111 21.0327 28.8396C23.3508 29.0356 25.4403 30.2435 26.1913 29.8191C26.8769 29.46 26.4852 28.1213 25.5709 27.2725C24.3629 26.1624 22.6979 25.4115 19.792 25.1177C20.3797 23.5178 20.2165 21.265 19.3023 20.057C17.9963 18.2939 15.5803 17.5104 12.5113 17.8368C9.31167 18.2287 6.24256 19.8284 6.69972 23.7463Z" fill="url(#paint4_linear_13_511)"/>
<defs>
<linearGradient id="paint0_linear_13_511" x1="15.7143" y1="29.2857" x2="34.47" y2="8.2172" gradientUnits="userSpaceOnUse">
<stop stop-color="#8697FF"/>
<stop offset="1" stop-color="#8697FF"/>
</linearGradient>
<linearGradient id="paint1_linear_13_511" x1="13.2243" y1="19.455" x2="34.6247" y2="25.5237" gradientUnits="userSpaceOnUse">
<stop stop-color="white"/>
<stop offset="1" stop-color="white"/>
</linearGradient>
<linearGradient id="paint2_linear_13_511" x1="26.6159" y1="14.1825" x2="16.1681" y2="8.30553" gradientUnits="userSpaceOnUse">
<stop stop-color="#AFBBFF"/>
<stop offset="1" stop-color="#FAFAFF"/>
</linearGradient>
<linearGradient id="paint3_linear_13_511" x1="22.4104" y1="30.1503" x2="5.88374" y2="23.7032" gradientUnits="userSpaceOnUse">
<stop stop-color="#AFBBFF"/>
<stop offset="1" stop-color="#FAFAFF"/>
</linearGradient>
<linearGradient id="paint4_linear_13_511" x1="8.65864" y1="21.5286" x2="25.473" y2="29.8541" gradientUnits="userSpaceOnUse">
<stop stop-color="white"/>
<stop offset="0.9839" stop-color="#D6DCFF"/>
</linearGradient>
</defs>
</svg>
