<svg width="40" height="40" viewBox="0 0 40 40" fill="none" xmlns="http://www.w3.org/2000/svg">
<rect width="40" height="40" rx="12" fill="url(#paint0_radial_13_519)"/>
<path d="M10.971 14.4599C15.7275 9.8467 23.4392 9.8467 28.1957 14.4599L28.7682 15.0151C29.006 15.2457 29.006 15.6198 28.7682 15.8503L26.81 17.7496C26.6911 17.865 26.4983 17.865 26.3792 17.7496L25.5915 16.9855C22.2733 13.7672 16.8934 13.7672 13.5752 16.9855L12.7315 17.8038C12.6126 17.919 12.4198 17.919 12.3009 17.8038L10.3426 15.9045C10.1049 15.6738 10.1049 15.2998 10.3426 15.0693L10.971 14.4599ZM32.2455 18.3877L33.9883 20.078C34.2261 20.3086 34.2261 20.6827 33.9883 20.9133L26.1297 28.5353C25.892 28.766 25.5063 28.766 25.2686 28.5353L19.6911 23.1258C19.6316 23.0681 19.5353 23.0681 19.4757 23.1258L13.8982 28.5353C13.6605 28.766 13.2749 28.766 13.0371 28.5353L5.17828 20.9133C4.94058 20.6827 4.94058 20.3086 5.17828 20.078L6.92117 18.3875C7.15897 18.1569 7.54458 18.1569 7.78228 18.3875L13.36 23.7972C13.4195 23.855 13.5158 23.855 13.5754 23.7972L19.1527 18.3875C19.3904 18.1569 19.776 18.1569 20.0138 18.3875L25.5915 23.7972C25.651 23.855 25.7473 23.855 25.8068 23.7972L31.3843 18.3877C31.6221 18.157 32.0077 18.157 32.2455 18.3877Z" fill="white"/>
<defs>
<radialGradient id="paint0_radial_13_519" cx="0" cy="0" r="1" gradientUnits="userSpaceOnUse" gradientTransform="translate(0 20) scale(40.0002)">
<stop stop-color="#5D9DF6"/>
<stop offset="1" stop-color="#006FFF"/>
</radialGradient>
</defs>
</svg>
